<svg width="15" height="15" viewBox="0 0 15 15" fill="none" xmlns="http://www.w3.org/2000/svg">
<path fill-rule="evenodd" clip-rule="evenodd" d="M10.9084 0.000156168C9.82625 -0.0092563 8.78366 0.407138 8.00522 1.15966L6.8244 2.33455C6.54385 2.61373 6.54252 3.06769 6.82145 3.3485C7.10038 3.62931 7.55393 3.63064 7.83449 3.35146L9.00401 2.18769C9.51187 1.69851 10.1911 1.42792 10.896 1.43405C11.6026 1.44019 12.2784 1.72385 12.7781 2.22393C13.2777 2.72401 13.5611 3.4005 13.5672 4.10769C13.5734 4.81292 13.3033 5.49242 12.815 6.00066L10.7729 8.04459C10.4997 8.31812 10.1709 8.52964 9.80888 8.66482C9.44683 8.8 9.05997 8.85566 8.67455 8.82803C8.28912 8.8004 7.91413 8.69013 7.57503 8.50469C7.23593 8.31926 6.94063 8.063 6.70918 7.75329C6.47221 7.43621 6.0233 7.37144 5.7065 7.60862C5.3897 7.8458 5.32499 8.29511 5.56196 8.61219C5.91646 9.08655 6.36875 9.47905 6.88814 9.76307C7.40752 10.0471 7.98187 10.216 8.5722 10.2583C9.16254 10.3006 9.75507 10.2154 10.3096 10.0083C10.8641 9.80129 11.3677 9.47731 11.7861 9.05836L13.8327 7.00996L13.8414 7.00107C14.5932 6.22193 15.0092 5.1784 14.9998 4.09523C14.9904 3.01206 14.5564 1.97592 13.7911 1.20998C13.0259 0.444035 11.9906 0.00956859 10.9084 0.000156168ZM6.4278 4.74169C5.83746 4.69937 5.24493 4.78463 4.69041 4.99167C4.13592 5.19869 3.6324 5.52264 3.21399 5.94155L3.2139 5.94165L1.16734 7.99005L1.15861 7.99893C0.406772 8.77807 -0.00924799 9.8216 0.000156028 10.9048C0.00955999 11.9879 0.443636 13.0241 1.20889 13.79C1.97415 14.556 3.00936 14.9904 4.09155 14.9998C5.17375 15.0093 6.21634 14.5929 6.99478 13.8403L7.00366 13.8316L8.17025 12.664C8.45 12.384 8.45 11.93 8.17025 11.65C7.89051 11.37 7.43695 11.37 7.15721 11.65L5.99526 12.813C5.48748 13.3017 4.80859 13.5721 4.104 13.566C3.39744 13.5598 2.72156 13.2761 2.22193 12.7761C1.7223 12.276 1.4389 11.5995 1.43276 10.8923C1.42664 10.1871 1.69674 9.50757 2.18504 8.99933L4.22703 6.95551L4.22713 6.95541C4.50031 6.68188 4.82908 6.47036 5.19112 6.33518C5.55317 6.2 5.94003 6.14434 6.32545 6.17197C6.71088 6.1996 7.08587 6.30987 7.42497 6.49531C7.76407 6.68074 8.05937 6.937 8.29082 7.24671C8.52779 7.56379 8.9767 7.62856 9.2935 7.39138C9.6103 7.1542 9.67501 6.70489 9.43804 6.38781C9.08354 5.91345 8.63125 5.52095 8.11186 5.23693C7.59248 4.9529 7.01813 4.78401 6.4278 4.74169Z" fill="#818B9B"/>
</svg>

