<svg width="14" height="14" viewBox="0 0 14 14" fill="none" xmlns="http://www.w3.org/2000/svg">
<path d="M12.9765 9.38669L9.80311 6.21338C9.58978 6.00005 9.25645 6.00005 9.04312 6.21338L8.00311 7.25335L6.74977 6.00003L7.78978 4.96003C8.00311 4.74669 8.00311 4.41337 7.78978 4.20003L4.61644 1.02669C4.40311 0.813359 4.06978 0.813359 3.85645 1.02669L1.01644 3.8667C0.909775 3.97337 0.856449 4.10671 0.856449 4.24004C0.856449 4.38671 0.909775 4.52005 1.01644 4.61338L4.18978 7.78669C4.29645 7.89335 4.42977 7.94671 4.56311 7.94671C4.69644 7.94671 4.82978 7.89335 4.93645 7.78669L5.97645 6.74671L7.22977 8.00003L6.18978 9.04004C5.97645 9.25337 5.97645 9.5867 6.18978 9.80003L9.3631 12.9734C9.46977 13.08 9.60311 13.1334 9.73644 13.1334C9.88311 13.1334 10.0165 13.08 10.1098 12.9734L12.9498 10.1334C13.1898 9.93337 13.1898 9.58669 12.9765 9.38669ZM4.57645 6.65335L2.16311 4.24004L4.24312 2.16003L6.65645 4.57337L5.98978 5.24004L5.58978 4.84004C5.37645 4.62671 5.04311 4.62671 4.82977 4.84004C4.61644 5.05337 4.61644 5.3867 4.82977 5.60003L5.22977 6.00003L4.57645 6.65335ZM9.7631 11.84L7.34977 9.42669L8.01644 8.76003L8.41644 9.16003C8.52311 9.26669 8.65645 9.32002 8.78978 9.32002C8.92311 9.32002 9.05644 9.26669 9.16311 9.16003C9.37644 8.94669 9.37644 8.61337 9.16311 8.40003L8.7631 8.00003L9.42977 7.33337L11.8431 9.74671L9.7631 11.84Z" fill="#333333"/>
</svg>
