<svg width="14" height="12" viewBox="0 0 14 12" fill="none" xmlns="http://www.w3.org/2000/svg">
<path d="M12.8435 3.05328C12.6568 2.86661 12.4034 2.79996 12.1368 2.79996H9.27012V1.19996C9.27012 0.906626 8.96345 0.666626 8.67012 0.666626H5.33678C5.04345 0.666626 4.73678 0.906626 4.73678 1.19996V2.79996H1.85679C1.31012 2.79996 0.870117 3.18661 0.870117 3.71995V10.3333C0.870117 10.88 1.31012 11.3199 1.85679 11.3199H12.1368C12.6834 11.3199 13.1235 10.88 13.1235 10.3333V3.73329C13.1368 3.47996 13.0301 3.23995 12.8435 3.05328ZM9.67012 3.86663V10.2666H4.33678V3.86663H9.67012ZM5.80345 1.73329H8.20345V2.79996H5.80345V1.73329ZM1.93678 3.86663H3.53678V10.2666H1.93678V3.86663ZM12.0701 10.2666H10.4701V3.86663H12.0701V10.2666Z" fill="#333333"/>
</svg>
