<svg width="40" height="40" viewBox="0 0 40 40" fill="none" xmlns="http://www.w3.org/2000/svg">
<circle cx="20" cy="20" r="20" fill="#333333"/>
<path d="M32.8913 14.0575C32.8913 14.0297 32.8913 13.974 32.8913 13.9462C32.8913 13.9184 32.8913 13.8905 32.8913 13.8627C32.8913 13.8349 32.8641 13.8071 32.8641 13.7514C32.8641 13.7236 32.837 13.6679 32.837 13.6401C32.837 13.6123 32.8098 13.5844 32.7826 13.5566C32.7555 13.5288 32.7554 13.4731 32.7282 13.4453V13.4174C32.7011 13.3896 32.7011 13.3896 32.6739 13.3618C32.6467 13.334 32.6195 13.3061 32.5924 13.2783C32.5652 13.2505 32.5381 13.2226 32.5109 13.2226C32.4837 13.1948 32.4565 13.167 32.4294 13.167C32.4022 13.1391 32.375 13.1391 32.3478 13.1113C32.3207 13.0835 32.2935 13.0835 32.2663 13.0557C32.2391 13.0557 32.1848 13.0278 32.1576 13.0278C32.1304 13.0278 32.1032 13 32.0489 13C32.0217 13 31.9674 13 31.9402 13C31.913 13 31.8859 13 31.8587 13H9.0326C9.00542 13 8.97827 13 8.95109 13C8.92392 13 8.86957 13 8.84239 13C8.81522 13 8.78804 13.0278 8.73369 13.0278C8.70652 13.0278 8.65216 13.0557 8.62499 13.0557C8.59781 13.0557 8.57066 13.0835 8.54348 13.1113C8.51631 13.1391 8.48912 13.1391 8.46195 13.167C8.43478 13.1948 8.40762 13.1948 8.38045 13.2226C8.35327 13.2505 8.32609 13.2783 8.29891 13.2783C8.27174 13.3061 8.24455 13.334 8.21738 13.3618C8.1902 13.3896 8.19022 13.3896 8.16304 13.4174V13.4453C8.13587 13.4731 8.10871 13.5288 8.10871 13.5566C8.08154 13.5844 8.08152 13.6123 8.05434 13.6401C8.02717 13.6679 8.02717 13.6957 8.02717 13.7514C8.02717 13.7792 8.00001 13.807 8.00001 13.8627C8.00001 13.8905 8.00001 13.9184 8.00001 13.9462C8.00001 13.974 8.00001 14.0297 8.00001 14.0575V14.0853V26.8868C8.00001 27.4991 8.48914 28 9.08696 28H31.913C32.5108 28 33 27.4991 33 26.8868L32.8913 14.0575C32.8913 14.0854 32.8913 14.0575 32.8913 14.0575ZM28.5163 15.1985L20.3913 21.3766L12.2663 15.1985H28.5163ZM10.0652 25.7737V16.3117L19.7391 23.6586C19.9293 23.7978 20.1467 23.8812 20.3913 23.8812C20.6359 23.8812 20.8533 23.7978 21.0435 23.6586L30.7174 16.3117V25.7737H10.0652Z" fill="white"/>
</svg>
