<svg width="20" height="20" viewBox="0 0 20 20" fill="none" xmlns="http://www.w3.org/2000/svg">
<path d="M10.3632 2.17498L12.1494 6.0473C12.499 6.80524 13.2172 7.3271 14.0461 7.42538L18.2808 7.92747C18.6198 7.96766 18.7559 8.38662 18.5053 8.61836L15.3745 11.5137C14.7617 12.0804 14.4873 12.9248 14.65 13.7435L15.4811 17.9261C15.5476 18.2609 15.1912 18.5198 14.8934 18.3531L11.1723 16.2702C10.4439 15.8625 9.55608 15.8625 8.82774 16.2702L5.10663 18.3531C4.80879 18.5198 4.45241 18.2609 4.51893 17.9261L5.35001 13.7435C5.51268 12.9248 5.23832 12.0804 4.62552 11.5137L1.49466 8.61836C1.24406 8.38662 1.38019 7.96766 1.71915 7.92747L5.95389 7.42538C6.78276 7.3271 7.50105 6.80524 7.85065 6.0473L9.63678 2.17497C9.77974 1.86503 10.2203 1.86502 10.3632 2.17498Z" stroke="#818B9B" stroke-width="2"/>
</svg>
