<svg width="10" height="14" viewBox="0 0 10 14" fill="none" xmlns="http://www.w3.org/2000/svg">
    <path fill-rule="evenodd" clip-rule="evenodd" d="M8 0C6.89 0 6 0.89 6 2C6 2.73 6.41 3.38 7 3.72V5L5 7L3 5V3.72C3.59 3.38 4 2.74 4 2C4 0.89 3.11 0 2 0C0.89 0 0 0.89 0 2C0 2.73 0.41 3.38 1 3.72V5.5L4 8.5V10.28C3.41 10.62 3 11.26 3 12C3 13.11 3.89 14 5 14C6.11 14 7 13.11 7 12C7 11.27 6.59 10.62 6 10.28V8.5L9 5.5V3.72C9.59 3.38 10 2.74 10 2C10 0.89 9.11 0 8 0ZM2 3.2C1.34 3.2 0.800003 2.65 0.800003 2C0.800003 1.35 1.35 0.8 2 0.8C2.65 0.8 3.2 1.35 3.2 2C3.2 2.65 2.65 3.2 2 3.2ZM5 13.2C4.34 13.2 3.8 12.65 3.8 12C3.8 11.35 4.35 10.8 5 10.8C5.65 10.8 6.2 11.35 6.2 12C6.2 12.65 5.65 13.2 5 13.2ZM8 3.2C7.34 3.2 6.8 2.65 6.8 2C6.8 1.35 7.35 0.8 8 0.8C8.65 0.8 9.2 1.35 9.2 2C9.2 2.65 8.65 3.2 8 3.2Z" fill="#6C6C6C"/>
</svg>
