<svg width="22" height="24" viewBox="0 0 22 24" fill="none" xmlns="http://www.w3.org/2000/svg">
    <path d="M15.0526 23.0636C14.4526 23.0636 14.0526 22.6636 14.0526 22.0636V18.1636C14.1526 17.3636 13.8526 16.7636 13.3526 16.2636C13.0526 15.9636 12.9526 15.5636 13.1526 15.2636C13.2526 14.8636 13.6526 14.6636 13.9526 14.5636C16.8526 14.2636 19.5526 13.2636 19.5526 8.56362C19.5526 7.46362 19.1526 6.36362 18.3526 5.46362C18.0526 5.16362 18.0526 4.76362 18.1526 4.46362C18.4526 3.66362 18.4526 2.86362 18.2526 2.06362C17.7526 2.16362 16.9526 2.46362 15.6526 3.36362C15.4526 3.56362 15.1526 3.56362 14.8526 3.46362C12.7526 2.86362 10.4526 2.86362 8.3526 3.46362C8.0526 3.56362 7.7526 3.56362 7.4526 3.36362C6.2526 2.46362 5.3526 2.16362 4.8526 2.06362C4.6526 2.86362 4.6526 3.66362 4.9526 4.46362C5.0526 4.86362 5.0526 5.26362 4.7526 5.46362C3.9526 6.36362 3.5526 7.46362 3.5526 8.56362C3.5526 13.2636 6.2526 14.2636 9.1526 14.5636C9.5526 14.5636 9.8526 14.8636 9.9526 15.2636C10.0526 15.6636 9.9526 16.0636 9.7526 16.2636C9.2526 16.7636 9.0526 17.3636 9.0526 18.0636V18.9636V19.0636V21.9636C9.0526 22.5636 8.6526 22.9636 8.0526 22.9636C7.4526 22.9636 7.0526 22.5636 7.0526 21.9636V20.2636C4.0526 20.7636 2.7526 19.0636 1.8526 17.9636C1.4526 17.4636 1.1526 17.0636 0.752596 16.9636C0.252596 16.8636 -0.147404 16.2636 0.0525961 15.7636C0.152596 15.2636 0.752596 14.8636 1.2526 15.0636C2.2526 15.3636 2.8526 16.0636 3.4526 16.7636C4.2526 17.8636 4.9526 18.6636 7.0526 18.2636V18.1636C7.0526 17.5636 7.1526 16.8636 7.3526 16.3636C4.5526 15.7636 1.5526 13.9636 1.5526 8.66362C1.5526 7.16362 2.0526 5.76362 2.9526 4.66362C2.5526 3.26362 2.6526 1.96362 3.2526 0.663617C3.3526 0.363617 3.5526 0.163617 3.8526 0.0636171C4.2526 -0.0363829 5.5526 -0.236383 8.2526 1.46362C10.4526 0.963617 12.7526 0.963617 14.8526 1.46362C17.4526 -0.236383 18.8526 -0.0363829 19.2526 0.0636171C19.5526 0.163617 19.7526 0.363617 19.8526 0.663617C20.3526 1.96362 20.4526 3.26362 20.1526 4.56362C21.0526 5.66362 21.5526 7.06362 21.5526 8.56362C21.5526 14.2636 18.1526 15.7636 15.7526 16.3636C15.9526 16.9636 16.0526 17.6636 16.0526 18.2636V22.0636C16.0526 22.6636 15.6526 23.0636 15.0526 23.0636Z" fill="white"/>
</svg>