<svg width="93" height="24" viewBox="0 0 93 24" fill="none" xmlns="http://www.w3.org/2000/svg">
<path d="M9.71505 11.1212L14.7324 11.0892C16.9907 11.0892 18.1198 12.1545 18.1198 14.285V22.6897C15.3715 23.5632 12.4847 24 9.45939 24C7.92543 24 6.56192 23.7443 5.36884 23.233C4.19707 22.7217 3.20639 21.9867 2.3968 21.028C1.60852 20.0692 1.01198 18.8975 0.60719 17.5126C0.202397 16.1065 0 14.5193 0 12.751C0 10.8123 0.276964 9.12916 0.830892 7.70173C1.40613 6.253 2.16245 5.04927 3.09987 4.09055C4.05859 3.13182 5.15579 2.41811 6.39148 1.9494C7.62716 1.45939 8.91611 1.21438 10.2583 1.21438C13.028 1.21438 15.6272 1.98136 18.0559 3.51531C18.0346 3.85619 17.9494 4.20772 17.8003 4.56991C17.6724 4.91079 17.502 5.25167 17.2889 5.59254C17.0972 5.91212 16.8628 6.21039 16.5859 6.48735C16.3302 6.74301 16.0639 6.96671 15.787 7.15846C14.0186 6.00799 12.229 5.43276 10.4181 5.43276C6.94541 5.43276 5.20905 7.86152 5.20905 12.719C5.20905 17.5553 6.98802 19.9734 10.5459 19.9734C11.036 19.9734 11.5047 19.9521 11.9521 19.9095C12.4208 19.8668 12.8788 19.8029 13.3262 19.7177V17.5766C13.3262 17.0866 13.3262 16.6605 13.3262 16.2983C13.3475 15.9361 13.3688 15.6272 13.3901 15.3715H11.7923C10.8762 15.3715 10.237 15.2011 9.87483 14.8602C9.53395 14.498 9.36351 13.9441 9.36351 13.1984C9.36351 12.5593 9.48069 11.8668 9.71505 11.1212Z" fill="#333333"/>
<path d="M28.0361 11.249V23.5206C27.6739 23.5846 27.2798 23.6272 26.8537 23.6485C26.4276 23.6911 25.9908 23.7124 25.5434 23.7124C25.096 23.7124 24.6486 23.6911 24.2012 23.6485C23.7751 23.6272 23.381 23.5846 23.0188 23.5206V12.9427C23.0188 11.7071 22.5181 11.0892 21.5168 11.0892H21.0374C20.9096 10.6844 20.8457 10.1198 20.8457 9.39547C20.8457 8.69241 20.9096 8.09587 21.0374 7.60586C21.5914 7.56325 22.1027 7.53129 22.5714 7.50999C23.0401 7.46738 23.4662 7.44607 23.8497 7.44607H24.5528C25.6393 7.44607 26.4915 7.78695 27.1094 8.46871C27.7272 9.15047 28.0361 10.0772 28.0361 11.249ZM22.4436 1.15047C23.0614 0.809588 23.8603 0.639149 24.8404 0.639149C25.8417 0.639149 26.6193 0.809588 27.1733 1.15047C27.4289 1.7257 27.5568 2.34354 27.5568 3.004C27.5568 3.66445 27.4289 4.28229 27.1733 4.85752C26.5554 5.1771 25.7458 5.33689 24.7445 5.33689C23.7432 5.33689 22.9762 5.1771 22.4436 4.85752C22.1879 4.28229 22.0601 3.66445 22.0601 3.004C22.0601 2.34354 22.1879 1.7257 22.4436 1.15047Z" fill="#333333"/>
<path d="M41.585 7.54195C41.7129 8.13848 41.7768 8.73502 41.7768 9.33156C41.7768 9.9281 41.7129 10.514 41.585 11.0892L37.7821 11.0253V18.3755C37.7821 19.3768 38.2508 19.8775 39.1882 19.8775H40.9779C41.2548 20.6445 41.3933 21.3475 41.3933 21.9867C41.3933 22.6258 41.3507 23.0839 41.2655 23.3609C39.6889 23.5739 38.2402 23.6804 36.9193 23.6804C34.2348 23.6804 32.8926 22.1997 32.8926 19.2383V11.0573L30.4 11.0892C30.2508 10.5566 30.1763 9.98136 30.1763 9.36352C30.1763 8.72437 30.2508 8.11718 30.4 7.54195L32.8926 7.60586V5.75233C32.8926 4.66578 33.095 3.8988 33.4998 3.4514C33.9259 2.98269 34.629 2.74834 35.609 2.74834H37.5584L37.7821 2.97204V7.60586L41.585 7.54195Z" fill="#333333"/>
<path d="M45.0045 18.6631C46.0484 19.3023 47.0604 19.6218 48.0404 19.6218C49.0631 19.6218 49.7661 19.3023 50.1496 18.6631C50.5544 18.0027 50.7568 16.9907 50.7568 15.6272V1.69374C51.396 1.56591 52.2375 1.502 53.2815 1.502C54.3254 1.502 55.1882 1.56591 55.87 1.69374V15.1478C55.87 16.5113 55.7528 17.7364 55.5185 18.8229C55.2841 19.8881 54.8793 20.7936 54.3041 21.5393C53.7289 22.285 52.9619 22.8602 52.0032 23.265C51.0657 23.6485 49.8833 23.8402 48.4559 23.8402C46.4745 23.8402 44.7382 23.3715 43.2468 22.4341C43.4812 20.964 44.0671 19.7071 45.0045 18.6631Z" fill="#333333"/>
<path d="M71.999 8.98003C73.533 10.514 74.2999 12.7084 74.2999 15.5632C74.2999 16.8415 74.1295 18.0027 73.7886 19.0466C73.469 20.0905 72.9897 20.9854 72.3505 21.731C71.7327 22.4554 70.9657 23.02 70.0496 23.4248C69.1335 23.8083 68.0789 24 66.8858 24C65.6927 24 64.6381 23.7976 63.722 23.3928C62.8272 22.988 62.0602 22.4234 61.4211 21.6991C60.8033 20.9534 60.3345 20.0586 60.015 19.0146C59.6954 17.9707 59.5356 16.8202 59.5356 15.5632C59.5356 14.285 59.6954 13.1345 60.015 12.1119C60.3345 11.0679 60.8033 10.1731 61.4211 9.42743C62.0389 8.68176 62.8059 8.10653 63.722 7.70173C64.6381 7.29694 65.6927 7.09454 66.8858 7.09454C68.995 7.09454 70.6994 7.72304 71.999 8.98003ZM66.9178 10.8336C66.4491 10.8336 66.0656 10.9507 65.7673 11.1851C65.4903 11.3981 65.2666 11.6964 65.0962 12.0799C64.9258 12.4634 64.8086 12.9108 64.7447 13.4221C64.6808 13.9121 64.6488 14.4447 64.6488 15.02C64.6488 15.9148 64.6701 16.6924 64.7127 17.3529C64.7766 17.992 64.8831 18.5353 65.0323 18.9827C65.2027 19.4088 65.4264 19.7284 65.7034 19.9414C66.0017 20.1545 66.3851 20.261 66.8539 20.261C67.7913 20.261 68.4091 19.8562 68.7074 19.0466C69.0057 18.2157 69.1548 17.0439 69.1548 15.5313C69.1548 13.9973 69.0057 12.8362 68.7074 12.0479C68.4091 11.2383 67.8126 10.8336 66.9178 10.8336Z" fill="#333333"/>
<path d="M77.798 22.7217V0.223703L78.0217 0H79.9072C80.8872 0 81.5903 0.223702 82.0164 0.671106C82.4425 1.11851 82.6555 1.89614 82.6555 3.004V8.34088C83.7634 7.61651 84.9991 7.25433 86.3626 7.25433C88.2374 7.25433 89.6436 8.01065 90.581 9.5233C91.5397 11.036 92.0191 13.0706 92.0191 15.6272C92.0191 16.8415 91.8273 17.9494 91.4438 18.9507C91.0603 19.9521 90.5277 20.8149 89.8459 21.5393C89.1642 22.2636 88.3333 22.8282 87.3533 23.233C86.3732 23.6165 85.2974 23.8083 84.1256 23.8083C81.6968 23.8083 79.5876 23.4461 77.798 22.7217ZM84.8606 11.249C84.0297 11.249 83.2947 11.6005 82.6555 12.3036V20.1012C82.8686 20.1438 83.0923 20.1758 83.3266 20.1971C83.5823 20.2184 83.8486 20.229 84.1256 20.229C85.9791 20.229 86.9059 18.6205 86.9059 15.4035C86.9059 12.6551 86.2241 11.2703 84.8606 11.249Z" fill="#333333"/>
</svg>
