<svg width="22" height="22" viewBox="0 0 22 22" fill="none" xmlns="http://www.w3.org/2000/svg">
    <path fill-rule="evenodd" clip-rule="evenodd" d="M11 1.99988C6.02944 1.99988 2 6.02931 2 10.9999C2 15.9704 6.02944 19.9999 11 19.9999C15.9706 19.9999 20 15.9704 20 10.9999C20 6.02931 15.9706 1.99988 11 1.99988ZM0 10.9999C0 4.92475 4.92487 -0.00012207 11 -0.00012207C17.0751 -0.00012207 22 4.92475 22 10.9999C22 17.075 17.0751 21.9999 11 21.9999C4.92487 21.9999 0 17.075 0 10.9999Z" fill="#60CEAE"/>
    <path fill-rule="evenodd" clip-rule="evenodd" d="M0 10.9999C0 10.4476 0.447715 9.99988 1 9.99988H21C21.5523 9.99988 22 10.4476 22 10.9999C22 11.5522 21.5523 11.9999 21 11.9999H1C0.447715 11.9999 0 11.5522 0 10.9999Z" fill="#60CEAE"/>
    <path fill-rule="evenodd" clip-rule="evenodd" d="M8.00023 10.9999C8.06877 14.0747 9.12625 17.035 11 19.4491C12.8737 17.035 13.9312 14.0747 13.9998 10.9999C13.9312 7.92504 12.8737 4.96472 11 2.55067C9.12626 4.96472 8.06877 7.92504 8.00023 10.9999ZM11 0.999878L10.2617 0.325455C7.59689 3.24278 6.08251 7.02873 6.00022 10.979C5.99993 10.9929 5.99993 11.0068 6.00022 11.0207C6.08251 14.971 7.59689 18.757 10.2617 21.6743C10.4511 21.8817 10.7191 21.9999 11 21.9999C11.2809 21.9999 11.5489 21.8817 11.7383 21.6743C14.4031 18.757 15.9175 14.971 15.9998 11.0207C16.0001 11.0068 16.0001 10.9929 15.9998 10.979C15.9175 7.02873 14.4031 3.24278 11.7383 0.325455L11 0.999878Z" fill="#60CEAE"/>
</svg>
