<svg width="14" height="17" viewBox="0 0 14 17" fill="none" xmlns="http://www.w3.org/2000/svg">
<path fill-rule="evenodd" clip-rule="evenodd" d="M7 8.76C7.97202 8.76 8.76 7.97202 8.76 7C8.76 6.02798 7.97202 5.24 7 5.24C6.02798 5.24 5.24 6.02798 5.24 7C5.24 7.97202 6.02798 8.76 7 8.76ZM7 10C8.65685 10 10 8.65685 10 7C10 5.34315 8.65685 4 7 4C5.34315 4 4 5.34315 4 7C4 8.65685 5.34315 10 7 10Z" fill="#818B9B"/>
<path fill-rule="evenodd" clip-rule="evenodd" d="M7.00002 14.9334L11.028 9.56271C12.7624 7.25029 12.198 3.95569 9.79295 2.35231C8.10169 1.22481 5.89836 1.22481 4.2071 2.35231C1.80203 3.95569 1.23769 7.25029 2.97201 9.56271L7.00002 14.9334ZM6.47025 16.2937C6.73514 16.6469 7.2649 16.6469 7.52979 16.2937L12.02 10.3067C14.1815 7.4248 13.4781 3.31882 10.4808 1.32057C8.373 -0.0846142 5.62704 -0.0846145 3.51927 1.32057C0.521897 3.31882 -0.181429 7.4248 1.98001 10.3067L6.47025 16.2937Z" fill="#818B9B"/>
</svg>
