<svg width="146" height="40" viewBox="0 0 146 40" fill="none" xmlns="http://www.w3.org/2000/svg">
    <path d="M62.728 19.12L67.752 19.088C70.0133 19.088 71.144 20.1547 71.144 22.288V30.704C68.392 31.5787 65.5013 32.016 62.472 32.016C60.936 32.016 59.5707 31.76 58.376 31.248C57.2027 30.736 56.2107 30 55.4 29.04C54.6107 28.08 54.0133 26.9067 53.608 25.52C53.2027 24.112 53 22.5227 53 20.752C53 18.8107 53.2773 17.1253 53.832 15.696C54.408 14.2453 55.1653 13.04 56.104 12.08C57.064 11.12 58.1627 10.4053 59.4 9.93601C60.6373 9.44534 61.928 9.20001 63.272 9.20001C66.0453 9.20001 68.648 9.96801 71.08 11.504C71.0587 11.8453 70.9733 12.1973 70.824 12.56C70.696 12.9013 70.5253 13.2427 70.312 13.584C70.12 13.904 69.8853 14.2027 69.608 14.48C69.352 14.736 69.0853 14.96 68.808 15.152C67.0373 14 65.2453 13.424 63.432 13.424C59.9547 13.424 58.216 15.856 58.216 20.72C58.216 25.5627 59.9973 27.984 63.56 27.984C64.0507 27.984 64.52 27.9627 64.968 27.92C65.4373 27.8773 65.896 27.8133 66.344 27.728V25.584C66.344 25.0933 66.344 24.6667 66.344 24.304C66.3653 23.9413 66.3867 23.632 66.408 23.376H64.808C63.8907 23.376 63.2507 23.2053 62.888 22.864C62.5467 22.5013 62.376 21.9467 62.376 21.2C62.376 20.56 62.4933 19.8667 62.728 19.12Z" fill="#333333"/>
    <path d="M81.0735 19.248V31.536C80.7108 31.6 80.3162 31.6427 79.8895 31.664C79.4628 31.7067 79.0255 31.728 78.5775 31.728C78.1295 31.728 77.6815 31.7067 77.2335 31.664C76.8068 31.6427 76.4122 31.6 76.0495 31.536V20.944C76.0495 19.7067 75.5482 19.088 74.5455 19.088H74.0655C73.9375 18.6827 73.8735 18.1173 73.8735 17.392C73.8735 16.688 73.9375 16.0907 74.0655 15.6C74.6202 15.5573 75.1322 15.5253 75.6015 15.504C76.0708 15.4613 76.4975 15.44 76.8815 15.44H77.5855C78.6735 15.44 79.5268 15.7813 80.1455 16.464C80.7642 17.1467 81.0735 18.0747 81.0735 19.248ZM75.4735 9.13601C76.0922 8.79468 76.8922 8.62401 77.8735 8.62401C78.8762 8.62401 79.6548 8.79468 80.2095 9.13601C80.4655 9.71201 80.5935 10.3307 80.5935 10.992C80.5935 11.6533 80.4655 12.272 80.2095 12.848C79.5908 13.168 78.7802 13.328 77.7775 13.328C76.7748 13.328 76.0068 13.168 75.4735 12.848C75.2175 12.272 75.0895 11.6533 75.0895 10.992C75.0895 10.3307 75.2175 9.71201 75.4735 9.13601Z" fill="#333333"/>
    <path d="M94.6405 15.536C94.7685 16.1333 94.8325 16.7307 94.8325 17.328C94.8325 17.9253 94.7685 18.512 94.6405 19.088L90.8325 19.024V26.384C90.8325 27.3867 91.3018 27.888 92.2405 27.888H94.0325C94.3098 28.656 94.4485 29.36 94.4485 30C94.4485 30.64 94.4058 31.0987 94.3205 31.376C92.7418 31.5893 91.2912 31.696 89.9685 31.696C87.2805 31.696 85.9365 30.2133 85.9365 27.248V19.056L83.4405 19.088C83.2912 18.5547 83.2165 17.9787 83.2165 17.36C83.2165 16.72 83.2912 16.112 83.4405 15.536L85.9365 15.6V13.744C85.9365 12.656 86.1392 11.888 86.5445 11.44C86.9712 10.9707 87.6752 10.736 88.6565 10.736H90.6085L90.8325 10.96V15.6L94.6405 15.536Z" fill="#333333"/>
    <path d="M98.0645 26.672C99.1098 27.312 100.123 27.632 101.104 27.632C102.128 27.632 102.833 27.312 103.217 26.672C103.622 26.0107 103.825 24.9973 103.825 23.632V9.68001C104.465 9.55201 105.307 9.48801 106.353 9.48801C107.398 9.48801 108.262 9.55201 108.945 9.68001V23.152C108.945 24.5173 108.827 25.744 108.593 26.832C108.358 27.8987 107.953 28.8053 107.377 29.552C106.801 30.2987 106.033 30.8747 105.073 31.28C104.134 31.664 102.95 31.856 101.521 31.856C99.5365 31.856 97.7978 31.3867 96.3045 30.448C96.5392 28.976 97.1258 27.7173 98.0645 26.672Z" fill="#333333"/>
    <path d="M125.095 16.976C126.631 18.512 127.399 20.7093 127.399 23.568C127.399 24.848 127.228 26.0107 126.887 27.056C126.567 28.1013 126.087 28.9973 125.447 29.744C124.828 30.4693 124.06 31.0347 123.143 31.44C122.226 31.824 121.17 32.016 119.975 32.016C118.78 32.016 117.724 31.8133 116.807 31.408C115.911 31.0027 115.143 30.4373 114.503 29.712C113.884 28.9653 113.415 28.0693 113.095 27.024C112.775 25.9787 112.615 24.8267 112.615 23.568C112.615 22.288 112.775 21.136 113.095 20.112C113.415 19.0667 113.884 18.1707 114.503 17.424C115.122 16.6773 115.89 16.1013 116.807 15.696C117.724 15.2907 118.78 15.088 119.975 15.088C122.087 15.088 123.794 15.7173 125.095 16.976ZM120.007 18.832C119.538 18.832 119.154 18.9493 118.855 19.184C118.578 19.3973 118.354 19.696 118.183 20.08C118.012 20.464 117.895 20.912 117.831 21.424C117.767 21.9147 117.735 22.448 117.735 23.024C117.735 23.92 117.756 24.6987 117.799 25.36C117.863 26 117.97 26.544 118.119 26.992C118.29 27.4187 118.514 27.7387 118.791 27.952C119.09 28.1653 119.474 28.272 119.943 28.272C120.882 28.272 121.5 27.8667 121.799 27.056C122.098 26.224 122.247 25.0507 122.247 23.536C122.247 22 122.098 20.8373 121.799 20.048C121.5 19.2373 120.903 18.832 120.007 18.832Z" fill="#333333"/>
    <path d="M130.902 30.736V8.20801L131.126 7.98401H133.014C133.995 7.98401 134.699 8.20801 135.126 8.65601C135.552 9.10401 135.766 9.88268 135.766 10.992V16.336C136.875 15.6107 138.112 15.248 139.478 15.248C141.355 15.248 142.763 16.0053 143.702 17.52C144.662 19.0347 145.142 21.072 145.142 23.632C145.142 24.848 144.95 25.9573 144.566 26.96C144.182 27.9627 143.648 28.8267 142.966 29.552C142.283 30.2773 141.451 30.8427 140.47 31.248C139.488 31.632 138.411 31.824 137.238 31.824C134.806 31.824 132.694 31.4613 130.902 30.736ZM137.974 19.248C137.142 19.248 136.406 19.6 135.766 20.304V28.112C135.979 28.1547 136.203 28.1867 136.438 28.208C136.694 28.2293 136.96 28.24 137.238 28.24C139.094 28.24 140.022 26.6293 140.022 23.408C140.022 20.656 139.339 19.2693 137.974 19.248Z" fill="#333333"/>
    <path d="M4 20C4 11.1634 11.1634 4 20 4H36V20C36 28.8366 28.8366 36 20 36C11.1634 36 4 28.8366 4 20Z" stroke="#60CEAE" stroke-width="8"/>
    <mask id="mask0" mask-type="alpha" maskUnits="userSpaceOnUse" x="28" y="8" width="16" height="18">
        <rect x="28" y="8" width="16" height="18" fill="#15987A"/>
    </mask>
    <g mask="url(#mask0)">
        <path d="M4 20C4 11.1634 11.1634 4 20 4H36V20C36 28.8366 28.8366 36 20 36C11.1634 36 4 28.8366 4 20Z" stroke="url(#paint0_linear)" stroke-width="8"/>
    </g>
    <path d="M20 13C16.134 13 13 16.134 13 20C13 23.866 16.134 27 20 27C23.866 27 27 23.866 27 20L27 13L20 13Z" fill="url(#paint1_linear)"/>
    <defs>
        <linearGradient id="paint0_linear" x1="20" y1="0" x2="20" y2="40" gradientUnits="userSpaceOnUse">
            <stop offset="0.211806" stop-color="#15987A"/>
            <stop offset="0.490625" stop-color="#60CEAE"/>
        </linearGradient>
        <linearGradient id="paint1_linear" x1="13" y1="20" x2="27" y2="20" gradientUnits="userSpaceOnUse">
            <stop stop-color="#1E9F80"/>
            <stop offset="1" stop-color="#60CEAE"/>
        </linearGradient>
    </defs>
</svg>
