<svg width="14" height="8" viewBox="0 0 14 8" fill="none" xmlns="http://www.w3.org/2000/svg">
<path d="M13.08 0.906694C13.08 0.893361 13.08 0.866691 13.08 0.853358C13.08 0.840024 13.08 0.826685 13.08 0.813351C13.08 0.800018 13.0667 0.786698 13.0667 0.760031C13.0667 0.746698 13.0534 0.720028 13.0534 0.706694C13.0534 0.693361 13.04 0.680021 13.0267 0.666688C13.0134 0.653354 13.0134 0.626685 13 0.613351V0.600021C12.9867 0.586688 12.9867 0.586694 12.9734 0.573361C12.96 0.560028 12.9467 0.546688 12.9334 0.533354C12.92 0.520021 12.9067 0.506694 12.8934 0.506694C12.88 0.493361 12.8667 0.480018 12.8534 0.480018C12.84 0.466685 12.8267 0.466691 12.8134 0.453358C12.8 0.440024 12.7867 0.440031 12.7734 0.426698C12.76 0.426698 12.7334 0.413351 12.72 0.413351C12.7067 0.413351 12.6934 0.400021 12.6667 0.400021C12.6534 0.400021 12.6267 0.400021 12.6134 0.400021C12.6 0.400021 12.5867 0.400021 12.5734 0.400021H1.37336C1.36003 0.400021 1.3467 0.400021 1.33337 0.400021C1.32004 0.400021 1.29337 0.400021 1.28003 0.400021C1.2667 0.400021 1.25336 0.413351 1.2267 0.413351C1.21336 0.413351 1.18669 0.426698 1.17336 0.426698C1.16003 0.426698 1.1467 0.440024 1.13337 0.453358C1.12004 0.466691 1.1067 0.466685 1.09336 0.480018C1.08003 0.493351 1.06671 0.493361 1.05337 0.506694C1.04004 0.520028 1.0267 0.533354 1.01337 0.533354C1.00003 0.546688 0.986693 0.560028 0.973359 0.573361C0.960026 0.586694 0.960033 0.586688 0.946699 0.600021V0.613351C0.933366 0.626685 0.920039 0.653354 0.920039 0.666688C0.906706 0.680021 0.906696 0.693361 0.893363 0.706694C0.880029 0.720028 0.880033 0.733364 0.880033 0.760031C0.880033 0.773364 0.866702 0.786685 0.866702 0.813351C0.866702 0.826685 0.866702 0.840024 0.866702 0.853358C0.866702 0.866691 0.866702 0.893361 0.866702 0.906694V0.920024V7.05336C0.866702 7.34669 1.1067 7.58669 1.40004 7.58669H12.6C12.8934 7.58669 13.1334 7.34669 13.1334 7.05336L13.08 0.906694C13.08 0.920028 13.08 0.906694 13.08 0.906694ZM10.9334 1.45336L6.9467 4.41335L2.96003 1.45336H10.9334ZM1.88003 6.52002V1.98669L6.6267 5.50669C6.72003 5.57336 6.8267 5.61335 6.9467 5.61335C7.0667 5.61335 7.17337 5.57336 7.2667 5.50669L12.0134 1.98669V6.52002H1.88003Z" fill="#333333"/>
</svg>
