<svg width="24" height="24" viewBox="0 0 24 24" fill="none" xmlns="http://www.w3.org/2000/svg">
<path fill-rule="evenodd" clip-rule="evenodd" d="M9.83333 13.125H8.75V12H9.83333V13.125ZM9.83333 9.75H8.75V10.875H9.83333V9.75ZM9.83333 7.5H8.75V8.625H9.83333V7.5ZM9.83333 5.25H8.75V6.375H9.83333V5.25ZM18.5 4.125V17.625C18.5 18.2437 18.0125 18.75 17.4167 18.75H12V19.7599C12 20.2099 11.452 20.4309 11.1398 20.1068L10.7352 19.6865C10.5385 19.4823 10.2115 19.4823 10.0148 19.6865L9.61016 20.1068C9.29801 20.4309 8.75 20.2099 8.75 19.7599V18.75H6.58333C5.9875 18.75 5.5 18.2437 5.5 17.625V4.125C5.5 3.50625 5.9875 3 6.58333 3H17.4167C18.0125 3 18.5 3.50625 18.5 4.125ZM17.4167 15.375H6.58333V17.625H8.75V16.5H12V17.625H17.4167V15.375ZM17.4167 4.125H7.66667V14.25H17.4167V4.125Z" fill="#818B9B"/>
</svg>
