<svg width="22" height="20" viewBox="0 0 22 20" fill="none" xmlns="http://www.w3.org/2000/svg">
    <path fill-rule="evenodd" clip-rule="evenodd" d="M21.0833 1.75001C21.5896 1.75001 22 2.16042 22 2.66668V8.16668C22 8.67294 21.5896 9.08334 21.0833 9.08334H15.5833C15.0771 9.08334 14.6667 8.67294 14.6667 8.16668C14.6667 7.66042 15.0771 7.25001 15.5833 7.25001H20.1667V2.66668C20.1667 2.16042 20.5771 1.75001 21.0833 1.75001Z" fill="white"/>
    <path fill-rule="evenodd" clip-rule="evenodd" d="M2.76721e-06 11.8333C2.76721e-06 11.3271 0.410408 10.9167 0.916669 10.9167H6.41667C6.92293 10.9167 7.33334 11.3271 7.33334 11.8333C7.33334 12.3396 6.92293 12.75 6.41667 12.75H1.83334V17.3333C1.83334 17.8396 1.42293 18.25 0.916669 18.25C0.410408 18.25 2.76721e-06 17.8396 2.76721e-06 17.3333V11.8333Z" fill="white"/>
    <path fill-rule="evenodd" clip-rule="evenodd" d="M13.0326 2.95545C11.8426 2.61125 10.5848 2.5741 9.37656 2.84748C8.16833 3.12085 7.04905 3.69584 6.12315 4.51879C5.19725 5.34174 4.49491 6.38583 4.08166 7.55364C3.91277 8.0309 3.38897 8.28088 2.91171 8.112C2.43445 7.94311 2.18446 7.4193 2.35335 6.94204C2.86991 5.48229 3.74783 4.17718 4.90521 3.14849C6.06259 2.1198 7.46169 1.40107 8.97197 1.05934C10.4823 0.717625 12.0545 0.764059 13.542 1.19431C15.0247 1.6232 16.3751 2.41954 17.4679 3.50939L21.711 7.49648C22.08 7.84316 22.098 8.42328 21.7514 8.79222C21.4047 9.16116 20.8246 9.17921 20.4556 8.83253L16.2023 4.83587C16.1953 4.82931 16.1884 4.82264 16.1817 4.81586C15.3059 3.9397 14.2225 3.29966 13.0326 2.95545ZM0.248646 11.2035C0.595322 10.8345 1.17544 10.8165 1.54438 11.1632L5.79771 15.1598C5.8047 15.1664 5.81157 15.173 5.81835 15.1798C6.69407 16.056 7.77747 16.696 8.96745 17.0402C10.1574 17.3844 11.4152 17.4216 12.6234 17.1482C13.8317 16.8748 14.951 16.2998 15.8769 15.4769C16.8028 14.6539 17.5051 13.6098 17.9183 12.442C18.0872 11.9648 18.611 11.7148 19.0883 11.8837C19.5656 12.0526 19.8155 12.5764 19.6467 13.0536C19.1301 14.5134 18.2522 15.8185 17.0948 16.8472C15.9374 17.8759 14.5383 18.5946 13.028 18.9363C11.5178 19.2781 9.94552 19.2316 8.45804 18.8014C6.97528 18.3725 5.62491 17.5761 4.5321 16.4863L0.288958 12.4992C-0.0799817 12.1525 -0.0980298 11.5724 0.248646 11.2035Z" fill="white"/>
</svg>
