<?xml version="1.0" standalone="no"?>
<!DOCTYPE svg PUBLIC "-//W3C//DTD SVG 20010904//EN"
 "http://www.w3.org/TR/2001/REC-SVG-20010904/DTD/svg10.dtd">
<svg version="1.0" xmlns="http://www.w3.org/2000/svg"
 width="700.000000pt" height="700.000000pt" viewBox="0 0 700.000000 700.000000"
 preserveAspectRatio="xMidYMid meet">
<metadata>
Created by potrace 1.11, written by Peter Selinger 2001-2013
</metadata>
<g transform="translate(0.000000,700.000000) scale(0.100000,-0.100000)"
fill="#000000" stroke="none">
<path d="M3279 6996 c-2 -2 -44 -7 -92 -11 -48 -3 -96 -8 -105 -10 -9 -1 -46
-6 -82 -11 -36 -4 -67 -8 -70 -9 -3 -1 -25 -5 -50 -9 -111 -19 -346 -79 -459
-116 -312 -104 -586 -235 -843 -406 -481 -319 -864 -732 -1140 -1229 -48 -86
-148 -289 -148 -301 0 -2 -11 -27 -24 -56 -52 -116 -142 -389 -162 -491 -2
-10 -6 -27 -9 -37 -3 -10 -8 -29 -10 -42 -3 -13 -11 -57 -20 -98 -47 -238 -60
-384 -60 -675 0 -195 6 -312 20 -409 3 -17 7 -49 9 -71 10 -83 18 -131 26
-165 5 -19 12 -48 14 -65 27 -151 108 -417 186 -610 49 -123 173 -370 235
-468 30 -49 55 -90 55 -93 0 -3 4 -10 10 -17 5 -7 46 -64 91 -126 378 -536
917 -963 1534 -1214 126 -51 337 -121 430 -143 6 -1 48 -11 95 -22 110 -27
201 -44 295 -57 22 -2 56 -7 75 -10 194 -27 657 -27 850 1 372 54 682 140 973
268 135 60 302 145 357 182 19 13 38 24 43 24 4 0 13 5 20 10 7 6 64 45 127
87 238 157 477 364 655 567 33 38 67 76 75 85 13 14 67 82 92 116 4 6 18 24
31 40 201 255 407 654 526 1015 62 190 126 480 146 665 4 33 9 71 12 85 4 14
8 881 10 1928 l4 1902 -1859 0 c-1023 -1 -1861 -2 -1863 -4z m2407 -2493 c-2
-653 -6 -1210 -10 -1238 -9 -77 -20 -143 -31 -195 -3 -14 -7 -35 -9 -47 -11
-57 -51 -189 -88 -288 -85 -231 -217 -456 -382 -653 -44 -53 -193 -200 -256
-253 -36 -29 -67 -56 -70 -59 -3 -3 -34 -25 -70 -49 -36 -25 -67 -48 -70 -51
-3 -4 -32 -21 -65 -40 -33 -18 -68 -40 -79 -49 -10 -9 -20 -15 -22 -13 -2 1
-31 -11 -63 -27 -126 -64 -301 -129 -446 -165 -57 -14 -80 -19 -157 -31 -18
-3 -44 -8 -58 -10 -90 -18 -373 -26 -500 -14 -606 57 -1161 356 -1522 819 -32
41 -63 81 -70 89 -21 26 -138 216 -138 225 0 5 -6 17 -13 25 -44 53 -148 323
-191 499 -76 309 -82 682 -15 982 75 334 208 618 411 882 66 85 239 266 313
328 286 239 638 408 985 475 208 40 260 42 1457 44 l1162 2 -3 -1188z"/>
<path d="M3609 4813 c-8 -1 -75 -4 -149 -7 -172 -5 -239 -16 -380 -62 -48 -15
-50 -16 -150 -63 -69 -32 -72 -34 -162 -93 -177 -116 -333 -293 -441 -500 -26
-50 -47 -99 -47 -108 0 -9 -4 -20 -9 -25 -8 -9 -36 -98 -47 -150 -28 -130 -34
-176 -34 -305 -1 -354 130 -669 385 -925 193 -194 471 -339 711 -370 22 -3 55
-7 74 -10 44 -6 234 -7 278 0 94 13 123 19 211 41 53 14 100 29 106 35 5 5 15
9 23 9 24 0 188 86 269 141 99 68 262 231 330 330 111 162 195 369 218 539 3
25 8 59 11 75 7 40 8 1435 1 1441 -5 5 -1165 12 -1198 7z"/>
</g>
</svg>
