<svg width="14" height="18" viewBox="0 0 14 18" fill="none" xmlns="http://www.w3.org/2000/svg">
<path fill-rule="evenodd" clip-rule="evenodd" d="M4.28122 0.840088C3.84764 0.840088 3.49622 1.19151 3.49622 1.62509C3.49622 2.05867 3.84764 2.41009 4.28122 2.41009H11.2187C11.8196 2.41009 12.3087 2.89924 12.3087 3.50009V12.9376C12.3087 13.3712 12.6601 13.7226 13.0937 13.7226C13.5273 13.7226 13.8787 13.3712 13.8787 12.9376V3.50009C13.8787 2.03318 12.6856 0.840088 11.2187 0.840088H4.28122ZM2.74997 3.37134C1.28306 3.37134 0.0899658 4.56443 0.0899658 6.03134V14.5001C0.0899658 15.967 1.28306 17.1601 2.74997 17.1601H8.71872C10.1856 17.1601 11.3787 15.967 11.3787 14.5001V6.03134C11.3787 4.56443 10.1856 3.37134 8.71872 3.37134H2.74997ZM1.65997 6.03134C1.65997 5.43049 2.14912 4.94134 2.74997 4.94134H8.71872C9.31956 4.94134 9.80872 5.43049 9.80872 6.03134V14.5001C9.80872 15.1009 9.31956 15.5901 8.71872 15.5901H2.74997C2.14912 15.5901 1.65997 15.1009 1.65997 14.5001V6.03134Z" fill="#4ECEA9"/>
</svg>
