<svg width="14" height="14" viewBox="0 0 14 14" fill="none" xmlns="http://www.w3.org/2000/svg">
<path d="M7.01075 14C6.00475 14 5.07373 13.8289 4.2177 13.4867C3.36791 13.1444 2.62747 12.6653 1.99638 12.0493C1.36528 11.4333 0.874782 10.7084 0.524869 9.87467C0.174956 9.04089 0 8.13556 0 7.15867C0 6.05111 0.174956 5.05867 0.524869 4.18133C0.88103 3.29778 1.37466 2.54489 2.00575 1.92267C2.64309 1.30044 3.38665 0.824445 4.23644 0.494666C5.09248 0.164889 6.02037 0 7.02012 0C8.20733 0 9.24457 0.186667 10.1318 0.560001C11.0191 0.927112 11.7533 1.43111 12.3344 2.072C12.9218 2.70667 13.3529 3.42533 13.6278 4.228C13.909 5.03067 14.0309 5.86756 13.9934 6.73867C13.9496 7.92711 13.6841 8.83245 13.1967 9.45467C12.7093 10.0769 11.9939 10.388 11.0504 10.388C10.5005 10.388 10.0069 10.2604 9.56949 10.0053C9.1321 9.75022 8.83529 9.38311 8.67908 8.904L9.17583 8.94133C8.93839 9.40178 8.60098 9.73155 8.16359 9.93067C7.7262 10.1236 7.27318 10.22 6.80455 10.22C6.2047 10.22 5.67671 10.0924 5.22057 9.83733C4.77068 9.576 4.41452 9.21511 4.15209 8.75467C3.8959 8.288 3.76781 7.74978 3.76781 7.14C3.76781 6.50533 3.90215 5.95778 4.17083 5.49733C4.43952 5.03689 4.80505 4.68222 5.26744 4.43333C5.72982 4.17822 6.25156 4.05067 6.83267 4.05067C7.23882 4.05067 7.66059 4.13467 8.09798 4.30267C8.53537 4.47067 8.87279 4.72578 9.11023 5.068L8.73532 5.516V4.87271C8.73532 4.56304 8.98636 4.312 9.29603 4.312C9.60699 4.312 9.85855 4.56505 9.85673 4.876L9.84129 7.504C9.84129 7.97067 9.94127 8.33778 10.1412 8.60533C10.3474 8.87289 10.6661 9.00667 11.0972 9.00667C11.4284 9.00667 11.694 8.91333 11.8939 8.72667C12.1001 8.54 12.2532 8.28489 12.3532 7.96133C12.4531 7.63156 12.5094 7.24889 12.5219 6.81333C12.5531 5.85511 12.4219 5.03378 12.1282 4.34933C11.8345 3.66489 11.4253 3.10178 10.9004 2.66C10.3818 2.21822 9.79443 1.89467 9.13834 1.68933C8.48851 1.47778 7.81367 1.372 7.11385 1.372C6.20783 1.372 5.40178 1.51822 4.6957 1.81067C3.99588 2.10311 3.40228 2.51378 2.9149 3.04267C2.43377 3.56533 2.06823 4.17511 1.8183 4.872C1.57461 5.56889 1.45901 6.32178 1.47151 7.13067C1.49025 7.94578 1.64022 8.69244 1.9214 9.37067C2.20258 10.0427 2.5931 10.6213 3.09298 11.1067C3.5991 11.592 4.18958 11.9653 4.86441 12.2267C5.54549 12.4942 6.28593 12.628 7.08573 12.628C7.57311 12.628 8.05736 12.5689 8.53849 12.4507C8.75933 12.3971 8.96991 12.3346 9.17022 12.2631C9.54311 12.1301 9.97685 12.2891 10.1206 12.658C10.2441 12.9748 10.1086 13.337 9.79372 13.4652C9.44842 13.6059 9.09249 13.7188 8.72595 13.804C8.16359 13.9347 7.59186 14 7.01075 14ZM6.89828 8.82933C7.36691 8.82933 7.75119 8.69555 8.05112 8.428C8.35729 8.16044 8.51038 7.728 8.51038 7.13067C8.51038 6.56444 8.36979 6.13822 8.08861 5.852C7.80743 5.56578 7.42315 5.42267 6.93577 5.42267C6.37341 5.42267 5.94539 5.57511 5.65171 5.88C5.36429 6.17867 5.22057 6.59556 5.22057 7.13067C5.22057 7.672 5.37053 8.092 5.67046 8.39067C5.97038 8.68311 6.37966 8.82933 6.89828 8.82933Z" fill="#818B9B"/>
</svg>
