<svg width="20" height="20" viewBox="0 0 20 20" fill="none" xmlns="http://www.w3.org/2000/svg">
<path d="M8.72872 1.75613C9.2291 0.671308 10.7709 0.67131 11.2713 1.75613L13.0574 5.62846C13.2613 6.07058 13.6803 6.375 14.1639 6.43233L18.3986 6.93443C19.5849 7.07509 20.0614 8.54143 19.1843 9.35255L16.0534 12.2479C15.696 12.5784 15.5359 13.071 15.6308 13.5486L16.4619 17.7312C16.6947 18.903 15.4474 19.8092 14.4049 19.2257L10.6838 17.1428C10.259 16.905 9.74104 16.905 9.31618 17.1428L5.59507 19.2257C4.55262 19.8092 3.30528 18.903 3.5381 17.7312L4.36919 13.5486C4.46408 13.071 4.30403 12.5784 3.94656 12.2479L0.815709 9.35254C-0.061391 8.54143 0.415054 7.07509 1.60141 6.93443L5.83615 6.43233C6.31966 6.375 6.73866 6.07058 6.94259 5.62845L8.72872 1.75613Z" fill="#FC9925"/>
</svg>
