<svg width="40" height="40" viewBox="0 0 40 40" fill="none" xmlns="http://www.w3.org/2000/svg">
<circle cx="20" cy="20" r="20" fill="#333333"/>
<mask id="path-2-outside-1" maskUnits="userSpaceOnUse" x="4" y="9" width="27" height="23" fill="black">
<rect fill="white" x="4" y="9" width="27" height="23"/>
<path d="M28.682 12.6633L25.3998 28.1311C25.1578 29.2279 24.5046 29.494 23.5933 28.9779L18.5933 25.2924L16.182 27.615C15.9159 27.8811 15.6901 28.1069 15.174 28.1069L15.5288 23.0182L24.7949 14.6472C25.1982 14.2924 24.7062 14.0908 24.174 14.4456L12.7224 21.6553L7.78688 20.115C6.7143 19.7762 6.6901 19.0424 8.01268 18.5262L27.2949 11.0908C28.1901 10.7682 28.9724 11.3085 28.682 12.6633Z"/>
</mask>
<path d="M28.682 12.6633L26.7264 12.2443L26.7256 12.2482L28.682 12.6633ZM25.3998 28.1311L27.3528 28.5619L27.3546 28.5541L27.3562 28.5462L25.3998 28.1311ZM23.5933 28.9779L22.4067 30.5878L22.5033 30.659L22.6077 30.7181L23.5933 28.9779ZM18.5933 25.2924L19.78 23.6825L18.4214 22.6811L17.2059 23.8519L18.5933 25.2924ZM16.182 27.615L14.7946 26.1745L14.7811 26.1875L14.7678 26.2007L16.182 27.615ZM15.174 28.1069L13.1788 27.9678C13.1402 28.521 13.3331 29.0655 13.7114 29.471C14.0897 29.8766 14.6194 30.1069 15.174 30.1069V28.1069ZM15.5288 23.0182L14.1881 21.5341L13.5897 22.0746L13.5337 22.8791L15.5288 23.0182ZM24.7949 14.6472L23.4737 13.1458L23.4639 13.1544L23.4542 13.1631L24.7949 14.6472ZM24.174 14.4456L25.2395 16.1381L25.2616 16.1242L25.2834 16.1097L24.174 14.4456ZM12.7224 21.6553L12.1265 23.5645C12.6853 23.7389 13.2925 23.6597 13.7879 23.3478L12.7224 21.6553ZM7.78688 20.115L7.18461 22.0221L7.19104 22.0241L7.78688 20.115ZM8.01268 18.5262L7.2931 16.6602L7.2856 16.6631L8.01268 18.5262ZM27.2949 11.0908L26.6169 9.2092L26.596 9.21672L26.5754 9.22469L27.2949 11.0908ZM26.7256 12.2482L23.4433 27.7159L27.3562 28.5462L30.6385 13.0785L26.7256 12.2482ZM23.4467 27.7003C23.3816 27.9957 23.3858 27.5802 23.9231 27.3371C24.4671 27.091 24.7999 27.3627 24.579 27.2376L22.6077 30.7181C23.2981 31.1091 24.4131 31.5058 25.572 30.9815C26.7242 30.4601 27.1761 29.3632 27.3528 28.5619L23.4467 27.7003ZM24.78 27.3679L19.78 23.6825L17.4067 26.9023L22.4067 30.5878L24.78 27.3679ZM17.2059 23.8519L14.7946 26.1745L17.5695 29.0554L19.9808 26.7328L17.2059 23.8519ZM14.7678 26.2007C14.6926 26.276 14.6743 26.2932 14.6644 26.3019C14.6626 26.3036 14.6991 26.2709 14.7661 26.2319C14.8382 26.19 14.9223 26.1541 15.0109 26.1312C15.0962 26.1091 15.1556 26.1069 15.174 26.1069V30.1069C15.7564 30.1069 16.2937 29.9709 16.7774 29.6895C17.194 29.4472 17.4955 29.13 17.5963 29.0292L14.7678 26.2007ZM17.1691 28.246L17.524 23.1573L13.5337 22.8791L13.1788 27.9678L17.1691 28.246ZM16.8695 24.5023L26.1357 16.1313L23.4542 13.1631L14.1881 21.5341L16.8695 24.5023ZM26.1162 16.1486C26.3502 15.9427 26.9094 15.3859 26.9416 14.4878C26.9845 13.2916 26.1217 12.6191 25.5166 12.3999C24.9718 12.2025 24.4591 12.2495 24.1188 12.325C23.7416 12.4088 23.3842 12.5684 23.0646 12.7815L25.2834 16.1097C25.2298 16.1454 25.1335 16.1972 24.9857 16.23C24.8747 16.2546 24.5596 16.3076 24.154 16.1607C23.939 16.0828 23.6259 15.9197 23.3599 15.5904C23.0724 15.2343 22.9282 14.7891 22.9442 14.3445C22.9718 13.5729 23.4413 13.1743 23.4737 13.1458L26.1162 16.1486ZM23.1084 12.7531L11.6568 19.9628L13.7879 23.3478L25.2395 16.1381L23.1084 12.7531ZM13.3182 19.7461L8.38271 18.2058L7.19104 22.0241L12.1265 23.5645L13.3182 19.7461ZM8.38914 18.2078C8.28773 18.1758 8.39112 18.1865 8.55354 18.3392C8.74435 18.5186 9.04751 18.9448 8.9941 19.5601C8.94622 20.1116 8.6438 20.3986 8.58858 20.4471C8.52271 20.505 8.5408 20.467 8.73977 20.3894L7.2856 16.6631C6.82328 16.8435 6.34843 17.0908 5.94863 17.442C5.55949 17.7839 5.08217 18.3723 5.00909 19.2142C4.93048 20.1197 5.35813 20.8253 5.81381 21.2536C6.2411 21.6553 6.74973 21.8848 7.18461 22.0221L8.38914 18.2078ZM8.73226 20.3923L28.0145 12.9568L26.5754 9.22469L7.2931 16.6602L8.73226 20.3923ZM27.973 12.9723C27.9457 12.9822 27.4795 13.1112 27.0376 12.6808C26.6191 12.2731 26.7965 11.9174 26.7264 12.2443L30.6376 13.0824C30.8579 12.0545 30.7893 10.7511 29.8285 9.81529C28.8442 8.85662 27.5394 8.87678 26.6169 9.2092L27.973 12.9723Z" fill="white" mask="url(#path-2-outside-1)"/>
</svg>
