<svg width="40" height="40" viewBox="0 0 40 40" fill="none" xmlns="http://www.w3.org/2000/svg">
<circle cx="20" cy="20" r="20" fill="#333333"/>
<path d="M16.2999 29.9C13.6999 29.9 10.9999 29.1999 8.59995 27.7999C8.19995 27.5999 7.99995 27.1 8.09995 26.7C8.19995 26.3 8.59995 26 8.99995 26C10.6999 26.1 12.3999 25.7 13.8999 25C10.1999 22.7 9.19995 19.5 9.09995 17C8.99995 14.1 9.99995 11.7 10.0999 11.6C10.1999 11.3 10.4999 11 10.8999 11C11.2999 11 11.5999 11.1 11.7999 11.4C13.4999 13.8 16.0999 15.3 18.9999 15.5C18.9999 13.9 19.6999 12.4 20.8999 11.3C22.9999 9.49995 26.0999 9.49995 28.1999 11.3C28.9999 11 29.7999 10.6 30.4999 10.1C30.7999 9.89995 31.2999 9.89995 31.5999 10.1C31.8999 10.3 32.0999 10.8 31.9999 11.2C31.6999 12.6 30.9999 13.9 29.9999 15C29.9999 15.2 29.9999 15.3 29.9999 15.5C29.9999 21 27.5999 25.6 23.2999 28C21.1999 29.2999 18.7999 29.9 16.2999 29.9ZM12.9999 27.5C16.2999 28.2999 19.5999 27.9 22.3999 26.2999C25.9999 24.1999 28.0999 20.2 28.0999 15.5C28.0999 15.3 28.0999 15.1 27.9999 14.9C27.8999 14.6 27.9999 14.2 28.2999 14C28.4999 13.8 28.6999 13.5 28.8999 13.3C28.6999 13.4 28.3999 13.5 28.1999 13.5C27.7999 13.6 27.3999 13.5 27.1999 13.2C25.8999 11.8 23.6999 11.6 22.2999 12.9C21.3999 13.5 20.9999 14.5 20.9999 15.5V16.5C20.9999 17 20.5999 17.5 19.9999 17.5C16.6999 17.6 13.5999 16.3 11.3999 14C10.7999 16.6 10.5999 21.5 16.3999 24C16.6999 24.2 16.9999 24.5 16.9999 24.9C16.9999 25.3 16.8999 25.6 16.5999 25.8C15.3999 26.6 14.1999 27.2 12.9999 27.5Z" fill="white"/>
</svg>
