<svg width="16" height="14" viewBox="0 0 16 14" fill="none" xmlns="http://www.w3.org/2000/svg">
<path fill-rule="evenodd" clip-rule="evenodd" d="M6.21997 0.339844C5.73396 0.339844 5.33997 0.733833 5.33997 1.21984V3.33984H3.33997H1.21997C0.733955 3.33984 0.339966 3.73383 0.339966 4.21984V12.7798C0.339966 13.2659 0.733955 13.6598 1.21997 13.6598H3.33997H12.66H14.78C15.266 13.6598 15.66 13.2659 15.66 12.7798V4.21984C15.66 3.73383 15.266 3.33984 14.78 3.33984H12.66H10.66V1.21984C10.66 0.733833 10.266 0.339844 9.77997 0.339844H6.21997ZM9.33997 3.33984V1.65984H6.65997V3.33984H9.33997ZM11.34 4.65984H10.22H5.77997H4.65997V12.3398H11.34V4.65984ZM12.66 12.3398V4.65984H14.34V12.3398H12.66ZM3.33997 12.3398V4.65984H1.65997V12.3398H3.33997Z" fill="#818B9B"/>
</svg>
