<svg width="18" height="18" viewBox="0 0 18 18" fill="none" xmlns="http://www.w3.org/2000/svg">
    <path fill-rule="evenodd" clip-rule="evenodd" d="M13.5374 5.03033C13.8303 5.32322 13.8303 5.7981 13.5374 6.09099L6.11279 13.5156C5.8199 13.8085 5.34502 13.8085 5.05213 13.5156C4.75924 13.2227 4.75924 12.7478 5.05213 12.455L12.4768 5.03033C12.7696 4.73744 13.2445 4.73744 13.5374 5.03033Z" fill="white"/>
    <path fill-rule="evenodd" clip-rule="evenodd" d="M5.05219 5.03033C5.34508 4.73744 5.81996 4.73744 6.11285 5.03033L13.5375 12.455C13.8304 12.7478 13.8304 13.2227 13.5375 13.5156C13.2446 13.8085 12.7697 13.8085 12.4768 13.5156L5.05219 6.09099C4.7593 5.7981 4.7593 5.32322 5.05219 5.03033Z" fill="white"/>
</svg>
